# Blender v3.0.1 OBJ File: 'bed.blend'
# www.blender.org
o Cube
v -1.221046 1.712407 2.027569
v -1.221046 1.613773 2.027569
v -1.221046 1.712407 -2.027569
v -1.221046 1.613773 -2.027569
v 1.221046 1.712407 2.027569
v 1.221046 1.613773 2.027569
v 1.221046 1.712407 -2.027569
v 1.221046 1.613773 -2.027569
v 1.221046 1.613773 1.660951
v -1.221046 1.712407 1.660951
v 1.221046 1.712407 1.660951
v -1.221046 1.613773 1.660951
v 1.221046 1.613773 -1.691515
v -1.221046 1.712407 -1.691515
v 1.221046 1.712407 -1.691515
v -1.221046 1.613773 -1.691515
v 0.840123 1.613773 2.027569
v 0.840123 1.712407 -2.027569
v 0.840123 1.613773 -2.027569
v 0.840123 1.712407 2.027569
v 0.840123 1.613773 1.660951
v 0.840123 1.613773 -1.691515
v -0.757639 1.613773 -2.027569
v -0.757639 1.712407 2.027569
v -0.757639 1.613773 2.027569
v -0.757639 1.712407 -2.027569
v -0.757639 1.613773 1.660951
v -0.757639 1.613773 -1.691515
v 0.840123 0.315940 2.027569
v 1.221046 0.315940 2.027569
v 1.221046 0.315940 1.660951
v 0.840123 0.315940 1.660951
v 1.221046 0.373091 -1.691515
v 1.221046 0.373091 -2.027569
v 0.840123 0.373091 -1.691515
v 0.840123 0.373091 -2.027569
v -0.757639 0.381575 -2.027569
v -1.221046 0.381575 -2.027569
v -1.221046 0.381575 -1.691515
v -0.757639 0.381575 -1.691515
v -1.221046 0.346851 1.660951
v -1.221046 0.346851 2.027569
v -0.757639 0.346851 2.027569
v -0.757639 0.346851 1.660951
v -1.221046 1.074089 -1.691515
v -1.221046 1.074089 1.660951
v 0.840123 1.074089 1.660951
v 1.221046 1.074089 1.660951
v 1.221046 1.074089 -1.691515
v 0.840123 1.074089 -1.691515
v -0.757639 1.074089 2.027569
v 0.840123 1.074089 2.027569
v -0.757639 1.074089 1.660951
v -0.757639 1.074089 -1.691515
v 0.840123 1.074089 -2.027569
v -0.757639 1.074089 -2.027569
vn 0.0000 0.0000 -1.0000
vn 1.0000 0.0000 0.0000
vn -1.0000 0.0000 0.0000
vn 0.0000 0.0000 1.0000
vn 0.0000 -1.0000 0.0000
vn 0.0000 1.0000 0.0000
s off
f 18//1 8//1 19//1
f 11//2 6//2 9//2
f 28//2 37//2 23//2
f 14//3 4//3 16//3
f 24//4 2//4 25//4
f 1//3 12//3 2//3
f 27//1 41//1 12//1
f 15//2 9//2 13//2
f 7//2 13//2 8//2
f 10//3 16//3 12//3
f 27//3 51//3 25//3
f 21//1 53//1 27//1
f 9//1 32//1 21//1
f 5//4 17//4 6//4
f 22//4 33//4 13//4
f 26//1 19//1 23//1
f 3//1 23//1 4//1
f 27//5 22//5 21//5
f 16//3 46//3 12//3
f 20//4 25//4 17//4
f 19//1 56//1 23//1
f 29//5 31//5 30//5
f 21//3 29//3 17//3
f 17//4 30//4 6//4
f 6//2 31//2 9//2
f 35//5 34//5 33//5
f 13//2 34//2 8//2
f 8//1 36//1 19//1
f 19//3 35//3 22//3
f 39//5 37//5 40//5
f 16//4 40//4 28//4
f 4//3 39//3 16//3
f 23//1 38//1 4//1
f 42//5 44//5 43//5
f 2//4 43//4 25//4
f 25//2 44//2 27//2
f 12//3 42//3 2//3
f 10//6 24//6 26//6
f 46//5 54//5 53//5
f 47//5 49//5 48//5
f 51//5 47//5 52//5
f 54//5 55//5 50//5
f 28//4 50//4 22//4
f 21//4 48//4 9//4
f 22//3 47//3 21//3
f 23//3 54//3 28//3
f 13//1 50//1 22//1
f 17//2 47//2 21//2
f 25//4 52//4 17//4
f 12//4 53//4 27//4
f 9//2 49//2 13//2
f 28//1 45//1 16//1
f 22//2 55//2 19//2
f 27//2 54//2 28//2
f 18//1 7//1 8//1
f 11//2 5//2 6//2
f 28//2 40//2 37//2
f 14//3 3//3 4//3
f 24//4 1//4 2//4
f 1//3 10//3 12//3
f 27//1 44//1 41//1
f 15//2 11//2 9//2
f 7//2 15//2 13//2
f 10//3 14//3 16//3
f 27//3 53//3 51//3
f 21//1 47//1 53//1
f 9//1 31//1 32//1
f 5//4 20//4 17//4
f 22//4 35//4 33//4
f 26//1 18//1 19//1
f 3//1 26//1 23//1
f 27//5 28//5 22//5
f 16//3 45//3 46//3
f 20//4 24//4 25//4
f 19//1 55//1 56//1
f 29//5 32//5 31//5
f 21//3 32//3 29//3
f 17//4 29//4 30//4
f 6//2 30//2 31//2
f 35//5 36//5 34//5
f 13//2 33//2 34//2
f 8//1 34//1 36//1
f 19//3 36//3 35//3
f 39//5 38//5 37//5
f 16//4 39//4 40//4
f 4//3 38//3 39//3
f 23//1 37//1 38//1
f 42//5 41//5 44//5
f 2//4 42//4 43//4
f 25//2 43//2 44//2
f 12//3 41//3 42//3
f 11//6 15//6 18//6
f 15//6 7//6 18//6
f 18//6 26//6 20//6
f 26//6 3//6 14//6
f 18//6 20//6 11//6
f 20//6 5//6 11//6
f 10//6 1//6 24//6
f 24//6 20//6 26//6
f 14//6 10//6 26//6
f 46//5 45//5 54//5
f 47//5 50//5 49//5
f 51//5 53//5 47//5
f 54//5 56//5 55//5
f 28//4 54//4 50//4
f 21//4 47//4 48//4
f 22//3 50//3 47//3
f 23//3 56//3 54//3
f 13//1 49//1 50//1
f 17//2 52//2 47//2
f 25//4 51//4 52//4
f 12//4 46//4 53//4
f 9//2 48//2 49//2
f 28//1 54//1 45//1
f 22//2 50//2 55//2
f 27//2 53//2 54//2
o Cube.001
v -1.338239 1.330812 1.140630
v -1.338239 1.837245 1.140630
v -1.338239 1.330812 0.833531
v -1.338239 1.837245 0.833531
v 1.338239 1.330812 1.140630
v 1.338239 1.837245 1.140630
v 1.338239 1.330812 0.833531
v 1.338239 1.837245 0.833531
vn -1.0000 0.0000 0.0000
vn 0.0000 0.0000 -1.0000
vn 1.0000 0.0000 0.0000
vn 0.0000 0.0000 1.0000
vn 0.0000 -1.0000 0.0000
vn 0.0000 1.0000 0.0000
s off
f 58//7 59//7 57//7
f 60//8 63//8 59//8
f 64//9 61//9 63//9
f 62//10 57//10 61//10
f 63//11 57//11 59//11
f 60//12 62//12 64//12
f 58//7 60//7 59//7
f 60//8 64//8 63//8
f 64//9 62//9 61//9
f 62//10 58//10 57//10
f 63//11 61//11 57//11
f 60//12 58//12 62//12
