# Blender v3.0.1 OBJ File: 'bed_matt.blend'
# www.blender.org
o Cube
v -1.167694 0.990763 1.938977
v -1.167694 0.861062 1.938977
v -1.167694 0.990763 -1.938977
v -1.167694 0.861062 -1.938977
v 1.167694 0.990763 1.938977
v 1.167694 0.861062 1.938977
v 1.167694 0.990763 -1.938977
v 1.167694 0.861062 -1.938977
v 1.167694 0.861062 1.588377
v -1.167694 0.990763 1.588377
v 1.167694 0.990763 1.588377
v -1.167694 0.861062 1.588377
v 1.167694 0.861062 -1.617606
v -1.167694 0.990763 -1.617606
v 1.167694 0.990763 -1.617606
v -1.167694 0.861062 -1.617606
v 0.803415 0.861062 1.938977
v 0.803415 0.990763 -1.938977
v 0.803415 0.861062 -1.938977
v 0.803415 0.990763 1.938977
v -0.724535 0.861062 -1.938977
v -0.724535 0.990763 1.938977
v -0.724535 0.861062 1.938977
v -0.724535 0.990763 -1.938977
vn 0.0000 0.0000 -1.0000
vn 1.0000 0.0000 0.0000
vn -1.0000 0.0000 0.0000
vn 0.0000 0.0000 1.0000
vn 0.0000 -1.0000 0.0000
vn 0.0000 1.0000 0.0000
s off
f 18//1 8//1 19//1
f 11//2 6//2 9//2
f 14//3 4//3 16//3
f 22//4 2//4 23//4
f 1//3 12//3 2//3
f 15//2 9//2 13//2
f 7//2 13//2 8//2
f 10//3 16//3 12//3
f 5//4 17//4 6//4
f 24//1 19//1 21//1
f 3//1 21//1 4//1
f 2//5 8//5 6//5
f 20//4 23//4 17//4
f 10//6 22//6 24//6
f 18//1 7//1 8//1
f 11//2 5//2 6//2
f 14//3 3//3 4//3
f 22//4 1//4 2//4
f 1//3 10//3 12//3
f 15//2 11//2 9//2
f 7//2 15//2 13//2
f 10//3 14//3 16//3
f 5//4 20//4 17//4
f 24//1 18//1 19//1
f 3//1 24//1 21//1
f 2//5 4//5 8//5
f 20//4 22//4 23//4
f 11//6 15//6 18//6
f 15//6 7//6 18//6
f 18//6 24//6 20//6
f 24//6 3//6 14//6
f 18//6 20//6 11//6
f 20//6 5//6 11//6
f 10//6 1//6 22//6
f 22//6 20//6 24//6
f 14//6 10//6 24//6
o Cylinder
v -0.715967 1.129459 1.392375
v 0.715967 1.129459 1.392375
v -0.715967 1.128068 1.293455
v 0.715967 1.128068 1.293455
v -0.715967 1.123947 1.198337
v 0.715967 1.123947 1.198337
v -0.715967 1.117256 1.110676
v 0.715967 1.117256 1.110676
v -0.715967 1.108250 1.033840
v 0.715967 1.108250 1.033839
v -0.715967 1.097277 0.970782
v 0.715967 1.097277 0.970782
v -0.715967 1.084758 0.923926
v 0.715967 1.084758 0.923926
v -0.715967 1.071175 0.895072
v 0.715967 1.071175 0.895072
v -0.715967 1.057048 0.885329
v 0.715967 1.057048 0.885329
v -0.715967 1.042921 0.895072
v 0.715967 1.042921 0.895072
v -0.715967 1.029337 0.923926
v 0.715967 1.029337 0.923926
v -0.715967 1.016818 0.970782
v 0.715967 1.016818 0.970782
v -0.715967 1.005845 1.033840
v 0.715967 1.005845 1.033839
v -0.715967 0.996840 1.110676
v 0.715967 0.996840 1.110676
v -0.715967 0.990149 1.198337
v 0.715967 0.990149 1.198337
v -0.715967 0.986028 1.293455
v 0.715967 0.986028 1.293455
v -0.715967 0.984637 1.392375
v 0.715967 0.984637 1.392375
v -0.715967 0.986028 1.491295
v 0.715967 0.986028 1.491295
v -0.715967 0.990149 1.586413
v 0.715967 0.990149 1.586413
v -0.715967 0.996840 1.674075
v 0.715967 0.996840 1.674075
v -0.715967 1.005845 1.750911
v 0.715967 1.005845 1.750911
v -0.715967 1.016818 1.813969
v 0.715967 1.016818 1.813969
v -0.715967 1.029337 1.860825
v 0.715967 1.029337 1.860825
v -0.715967 1.042921 1.889678
v 0.715967 1.042921 1.889678
v -0.715967 1.057048 1.899421
v 0.715967 1.057048 1.899421
v -0.715967 1.071175 1.889678
v 0.715967 1.071175 1.889678
v -0.715967 1.084759 1.860825
v 0.715967 1.084758 1.860825
v -0.715967 1.097277 1.813969
v 0.715967 1.097277 1.813969
v -0.715967 1.108250 1.750911
v 0.715967 1.108250 1.750911
v -0.715967 1.117256 1.674075
v 0.715967 1.117256 1.674075
v -0.715967 1.123947 1.586413
v 0.715967 1.123947 1.586413
v -0.715967 1.128068 1.491295
v 0.715967 1.128068 1.491295
vn 0.0000 0.9999 -0.0141
vn 0.0000 0.9991 -0.0433
vn 0.0000 0.9971 -0.0761
vn 0.0000 0.9932 -0.1164
vn 0.0000 0.9852 -0.1714
vn 0.0000 0.9661 -0.2581
vn -0.0000 0.9048 -0.4259
vn 0.0000 0.5677 -0.8232
vn 0.0000 -0.5677 -0.8232
vn -0.0000 -0.9048 -0.4259
vn 0.0000 -0.9661 -0.2581
vn 0.0000 -0.9852 -0.1714
vn 0.0000 -0.9932 -0.1164
vn 0.0000 -0.9971 -0.0761
vn 0.0000 -0.9991 -0.0433
vn -0.0000 -0.9999 -0.0141
vn 0.0000 -0.9999 0.0141
vn 0.0000 -0.9991 0.0433
vn 0.0000 -0.9971 0.0761
vn 0.0000 -0.9932 0.1164
vn 0.0000 -0.9852 0.1714
vn 0.0000 -0.9661 0.2581
vn 0.0000 -0.9048 0.4259
vn 0.0000 -0.5677 0.8232
vn 0.0000 0.5677 0.8232
vn 0.0000 0.9048 0.4259
vn 0.0000 0.9661 0.2581
vn 0.0000 0.9852 0.1714
vn 0.0000 0.9932 0.1164
vn 0.0000 0.9971 0.0761
vn 1.0000 0.0000 -0.0000
vn 0.0000 0.9991 0.0433
vn 0.0000 0.9999 0.0141
vn -1.0000 0.0000 0.0000
vn 0.0000 -0.9047 -0.4259
vn -0.0000 -0.9047 0.4259
vn 1.0000 0.0001 0.0000
vn 1.0000 -0.0001 0.0000
vn -1.0000 -0.0001 0.0000
s off
f 26//7 27//7 25//7
f 27//8 30//8 29//8
f 30//9 31//9 29//9
f 32//10 33//10 31//10
f 34//11 35//11 33//11
f 36//12 37//12 35//12
f 38//13 39//13 37//13
f 40//14 41//14 39//14
f 41//15 44//15 43//15
f 44//16 45//16 43//16
f 46//17 47//17 45//17
f 48//18 49//18 47//18
f 50//19 51//19 49//19
f 52//20 53//20 51//20
f 54//21 55//21 53//21
f 55//22 58//22 57//22
f 58//23 59//23 57//23
f 60//24 61//24 59//24
f 62//25 63//25 61//25
f 64//26 65//26 63//26
f 66//27 67//27 65//27
f 68//28 69//28 67//28
f 69//29 72//29 71//29
f 72//30 73//30 71//30
f 74//31 75//31 73//31
f 76//32 77//32 75//32
f 78//33 79//33 77//33
f 80//34 81//34 79//34
f 82//35 83//35 81//35
f 84//36 85//36 83//36
f 78//37 62//37 46//37
f 86//38 87//38 85//38
f 88//39 25//39 87//39
f 55//40 71//40 87//40
f 26//7 28//7 27//7
f 27//8 28//8 30//8
f 30//9 32//9 31//9
f 32//10 34//10 33//10
f 34//11 36//11 35//11
f 36//12 38//12 37//12
f 38//13 40//13 39//13
f 40//14 42//14 41//14
f 41//15 42//15 44//15
f 44//41 46//41 45//41
f 46//17 48//17 47//17
f 48//18 50//18 49//18
f 50//19 52//19 51//19
f 52//20 54//20 53//20
f 54//21 56//21 55//21
f 55//22 56//22 58//22
f 58//23 60//23 59//23
f 60//24 62//24 61//24
f 62//25 64//25 63//25
f 64//26 66//26 65//26
f 66//27 68//27 67//27
f 68//28 70//28 69//28
f 69//42 70//42 72//42
f 72//30 74//30 73//30
f 74//31 76//31 75//31
f 76//32 78//32 77//32
f 78//33 80//33 79//33
f 80//34 82//34 81//34
f 82//35 84//35 83//35
f 84//36 86//36 85//36
f 30//37 28//37 86//37
f 28//37 26//37 86//37
f 26//37 88//37 86//37
f 86//37 84//37 82//37
f 82//37 80//37 86//37
f 80//37 78//37 86//37
f 78//37 76//37 74//37
f 74//37 72//37 70//37
f 70//37 68//37 66//37
f 66//43 64//43 62//43
f 62//44 60//44 58//44
f 58//37 56//37 54//37
f 54//37 52//37 50//37
f 50//37 48//37 46//37
f 46//37 44//37 42//37
f 42//37 40//37 38//37
f 38//37 36//37 34//37
f 34//43 32//43 30//43
f 78//37 74//37 62//37
f 74//37 70//37 62//37
f 70//37 66//37 62//37
f 62//37 58//37 54//37
f 54//37 50//37 62//37
f 50//37 46//37 62//37
f 46//37 42//37 30//37
f 42//37 38//37 30//37
f 38//37 34//37 30//37
f 30//37 86//37 78//37
f 30//37 78//37 46//37
f 86//38 88//38 87//38
f 88//39 26//39 25//39
f 87//40 25//40 31//40
f 25//40 27//40 31//40
f 27//40 29//40 31//40
f 31//40 33//40 35//40
f 35//40 37//40 31//40
f 37//40 39//40 31//40
f 39//40 41//40 43//40
f 43//40 45//40 47//40
f 47//40 49//40 51//40
f 51//40 53//40 55//40
f 55//45 57//45 59//45
f 59//40 61//40 55//40
f 61//40 63//40 55//40
f 63//40 65//40 67//40
f 67//40 69//40 71//40
f 71//40 73//40 79//40
f 73//40 75//40 79//40
f 75//40 77//40 79//40
f 79//40 81//40 83//40
f 83//40 85//40 79//40
f 85//40 87//40 79//40
f 39//40 43//40 47//40
f 47//40 51//40 39//40
f 51//40 55//40 39//40
f 63//40 67//40 55//40
f 67//40 71//40 55//40
f 87//40 31//40 39//40
f 71//40 79//40 87//40
f 87//40 39//40 55//40
o Cube.001_Cube.002
v -1.331437 0.781671 0.814710
v -1.331437 1.233314 0.814710
v -1.331437 0.781671 0.576079
v -1.331437 1.233314 0.576079
v 1.331437 0.781671 0.814710
v 1.331437 1.233314 0.814710
v 1.331437 0.781671 0.576079
v 1.331437 1.233314 0.576079
vn -1.0000 0.0000 0.0000
vn 0.0000 0.0000 -1.0000
vn 1.0000 0.0000 0.0000
vn 0.0000 0.0000 1.0000
vn 0.0000 -1.0000 0.0000
vn 0.0000 1.0000 0.0000
s off
f 90//46 91//46 89//46
f 92//47 95//47 91//47
f 96//48 93//48 95//48
f 94//49 89//49 93//49
f 95//50 89//50 91//50
f 92//51 94//51 96//51
f 90//46 92//46 91//46
f 92//47 96//47 95//47
f 96//48 94//48 93//48
f 94//49 90//49 89//49
f 95//50 93//50 89//50
f 92//51 90//51 94//51
