# Blender v3.0.1 OBJ File: 'chimney.blend'
# www.blender.org
o Cube
v 0.381289 8.099944 -0.381289
v 0.381289 1.355012 -0.650080
v 0.381289 8.099944 0.381289
v 0.381289 1.355012 0.683427
v -0.381289 8.099944 -0.381289
v -0.381289 8.099944 0.381289
v 0.381289 1.802368 -0.381289
v -0.381289 1.802368 0.381289
v 0.381289 1.802368 0.381289
v -0.381289 1.802368 -0.381289
v 0.381289 1.355012 -1.122007
v -0.381289 1.355012 -1.122007
v 0.381289 1.802368 -1.122007
v -0.381289 1.802368 -1.122007
v 0.381289 1.802368 1.145336
v 0.381289 1.355012 1.145336
v -0.381289 1.355012 1.145336
v -0.381289 1.802368 1.145336
v 0.381289 1.578690 -0.650080
v 0.381289 1.578690 0.683427
v 0.381289 1.578690 -1.122007
v -0.381289 1.578690 -1.122007
v 0.381289 1.578690 1.145336
v -0.381289 1.578690 1.145336
v 0.637975 1.802368 -0.381289
v 0.637975 1.802368 0.381289
v 0.637975 1.802368 -1.122007
v 0.637975 1.802368 1.145336
v 0.637975 1.578690 -1.122007
v 0.637975 1.578690 1.145336
v 0.637975 1.578690 0.683427
v 0.637975 1.578690 -0.650080
v -0.381289 0.014133 -0.381289
v -0.381289 0.014133 0.381289
v 0.381289 0.014133 0.683427
v 0.381289 0.014133 -0.650080
v 0.381289 0.014133 -1.122007
v -0.381289 0.014133 -1.122007
v -0.381289 0.014133 1.145336
v 0.381289 0.014133 1.145336
v 0.381289 0.187905 0.683427
v 0.381289 0.187905 -0.650080
v 0.381289 0.187905 -1.122007
v 0.381289 0.187905 1.145336
v -0.358420 1.355012 0.683427
v -0.358420 1.355012 -0.650080
v -0.358420 0.187905 -0.650080
v -0.358420 0.187905 0.683427
vn 0.0000 1.0000 0.0000
vn 0.0000 0.0000 1.0000
vn -1.0000 0.0000 0.0000
vn 1.0000 0.0000 0.0000
vn 0.0000 0.0000 -1.0000
vn 0.0000 -1.0000 0.0000
s off
f 5//1 3//1 1//1
f 3//2 8//2 9//2
f 6//3 10//3 8//3
f 1//4 9//4 7//4
f 5//5 7//5 10//5
f 7//1 14//1 10//1
f 2//4 21//4 19//4
f 8//1 15//1 9//1
f 44//2 16//2 17//2
f 20//4 16//4 4//4
f 19//4 4//4 2//4
f 23//2 28//2 15//2
f 31//4 32//4 26//4
f 13//5 29//5 21//5
f 21//6 32//6 19//6
f 20//6 30//6 23//6
f 9//1 25//1 7//1
f 19//6 31//6 20//6
f 7//1 27//1 13//1
f 15//1 26//1 9//1
f 35//6 39//6 34//6
f 41//4 36//4 42//4
f 12//5 43//5 38//5
f 42//4 37//4 43//4
f 44//4 35//4 41//4
f 34//3 17//3 8//3
f 16//4 41//4 4//4
f 2//4 43//4 11//4
f 42//1 48//1 41//1
f 45//4 47//4 46//4
f 41//5 45//5 4//5
f 4//6 46//6 2//6
f 2//2 47//2 42//2
f 5//1 6//1 3//1
f 3//2 6//2 8//2
f 6//3 5//3 10//3
f 1//4 3//4 9//4
f 5//5 1//5 7//5
f 7//1 13//1 14//1
f 2//4 11//4 21//4
f 8//1 18//1 15//1
f 16//2 23//2 17//2
f 23//2 15//2 24//2
f 17//2 23//2 24//2
f 15//2 18//2 24//2
f 17//2 39//2 44//2
f 39//2 40//2 44//2
f 20//4 23//4 16//4
f 19//4 20//4 4//4
f 23//2 30//2 28//2
f 27//4 25//4 32//4
f 25//4 26//4 32//4
f 27//4 32//4 29//4
f 26//4 28//4 31//4
f 28//4 30//4 31//4
f 13//5 27//5 29//5
f 21//6 29//6 32//6
f 20//6 31//6 30//6
f 9//1 26//1 25//1
f 19//6 32//6 31//6
f 7//1 25//1 27//1
f 15//1 28//1 26//1
f 37//6 36//6 38//6
f 36//6 35//6 34//6
f 38//6 36//6 33//6
f 35//6 40//6 39//6
f 34//6 33//6 36//6
f 41//4 35//4 36//4
f 12//5 22//5 11//5
f 22//5 14//5 21//5
f 11//5 22//5 21//5
f 14//5 13//5 21//5
f 11//5 43//5 12//5
f 43//5 37//5 38//5
f 42//4 36//4 37//4
f 44//4 40//4 35//4
f 8//3 10//3 33//3
f 10//3 14//3 22//3
f 22//3 12//3 10//3
f 12//3 38//3 33//3
f 24//3 18//3 8//3
f 34//3 39//3 17//3
f 17//3 24//3 8//3
f 10//3 12//3 33//3
f 33//3 34//3 8//3
f 16//4 44//4 41//4
f 2//4 42//4 43//4
f 42//1 47//1 48//1
f 45//4 48//4 47//4
f 41//5 48//5 45//5
f 4//6 45//6 46//6
f 2//2 46//2 47//2
