# Blender v3.0.1 OBJ File: ''
# www.blender.org
o Cube
v 0.000000 1.807130 -5.768869
v 5.190551 -0.192870 -5.768869
v 0.000000 1.807130 5.768869
v 5.190551 -0.192870 5.768869
v -5.190551 -0.192870 -5.768869
v -5.190551 -0.192870 5.768869
vn 0.0000 0.0000 1.0000
vn -0.3595 0.9331 0.0000
vn 0.0000 -1.0000 0.0000
vn 0.3595 0.9331 0.0000
vn 0.0000 0.0000 -1.0000
s off
f 4//1 3//1 6//1
f 3//2 5//2 6//2
f 2//3 6//3 5//3
f 1//4 4//4 2//4
f 5//5 1//5 2//5
f 3//2 1//2 5//2
f 2//3 4//3 6//3
f 1//4 3//4 4//4
