# Blender v3.0.1 OBJ File: 'sign.blend'
# www.blender.org
o Cube
v 0.154049 2.002321 -0.154049
v 0.154049 -0.196930 -0.154049
v 0.154049 2.002321 0.154049
v 0.154049 -0.196930 0.154049
v -0.154049 2.002321 -0.154049
v -0.154049 -0.196930 -0.154049
v -0.154049 2.002321 0.154049
v -0.154049 -0.196930 0.154049
v 0.141085 1.513689 -0.162481
v -0.141085 1.390985 0.162481
v 0.173656 1.399154 0.130707
v -0.173656 1.505519 -0.130707
v 0.131221 0.663731 -0.095309
v 0.108951 0.750412 0.136263
v -0.108951 0.711431 -0.136263
v -0.131221 0.798113 0.095309
vn 0.0000 1.0000 0.0000
vn 0.1013 -0.0352 0.9942
vn -0.9945 -0.0197 0.1028
vn 0.0000 -1.0000 0.0000
vn 0.9925 -0.0243 -0.1197
vn -0.0993 -0.0428 -0.9941
vn 0.1522 -0.0796 -0.9851
vn 0.9866 -0.0973 0.1313
vn -0.9946 -0.0806 -0.0655
vn -0.1889 -0.1137 0.9754
vn 0.0000 0.0188 0.9998
vn -0.9997 0.0229 0.0000
vn 0.9996 0.0265 0.0000
vn 0.0000 0.0196 -0.9998
vn 0.0000 0.0138 0.9999
vn -0.9992 0.0394 0.0000
vn 0.9995 0.0325 0.0000
vn 0.0000 0.0173 -0.9999
vn -0.1004 -0.0012 -0.9949
vn 0.9927 -0.0209 -0.1184
vn -0.9946 -0.0278 0.0996
vn 0.1005 -0.0015 0.9949
vn -0.1558 0.0618 0.9858
vn -0.9921 0.0515 -0.1147
vn 0.9958 0.0489 0.0775
vn 0.1815 0.0718 -0.9808
s off
f 5//1 3//1 1//1
f 3//2 10//2 11//2
f 7//3 12//3 10//3
f 2//4 8//4 6//4
f 1//5 11//5 9//5
f 5//6 9//6 12//6
f 15//7 9//7 13//7
f 13//8 11//8 14//8
f 16//9 12//9 15//9
f 14//10 10//10 16//10
f 14//11 8//11 4//11
f 16//12 6//12 8//12
f 13//13 4//13 2//13
f 15//14 2//14 6//14
f 5//1 7//1 3//1
f 3//15 7//15 10//15
f 7//16 5//16 12//16
f 2//4 4//4 8//4
f 1//17 3//17 11//17
f 5//18 1//18 9//18
f 15//19 12//19 9//19
f 13//20 9//20 11//20
f 16//21 10//21 12//21
f 14//22 11//22 10//22
f 14//23 16//23 8//23
f 16//24 15//24 6//24
f 13//25 14//25 4//25
f 15//26 13//26 2//26
o Cube.001
v -0.203559 1.967202 1.180335
v -0.229847 3.050858 1.171594
v -0.199355 2.025911 -0.688568
v -0.203559 3.043235 -0.819665
v 0.203559 1.967202 1.180335
v 0.225410 3.018711 1.185969
v 0.192654 2.035316 -0.784178
v 0.208545 3.019229 -0.840292
v -0.203559 2.505218 0.693256
v -0.153555 2.490863 -1.309399
v 0.195762 2.517083 -1.318400
v 0.203559 2.505218 0.693256
v 0.203559 3.043235 0.221684
v 0.203559 3.043235 0.332754
v 0.062061 3.043235 0.286916
v 0.203559 2.886302 0.283398
v 0.165922 3.003910 0.277834
vn -0.9973 -0.0686 -0.0244
vn -0.0703 0.6888 -0.7215
vn 0.9995 -0.0225 -0.0209
vn 0.0000 -0.6924 0.7216
vn 0.0000 -0.9995 -0.0314
vn -0.0094 0.9995 0.0290
vn 0.0000 0.6711 0.7413
vn 1.0000 -0.0052 -0.0057
vn -0.1275 -0.7893 -0.6006
vn -1.0000 -0.0021 -0.0023
vn 0.3118 0.6673 0.6764
vn 0.7333 0.2040 -0.6486
vn 0.2143 0.7187 -0.6615
vn 0.7092 0.2580 0.6561
vn -0.9992 -0.0367 -0.0131
vn 0.0012 0.6635 -0.7482
vn 1.0000 -0.0042 -0.0039
vn 0.9996 -0.0267 0.0013
vn 1.0000 0.0018 0.0047
vn 0.9996 0.0080 -0.0254
vn -0.0702 -0.6595 0.7484
vn 0.0155 -0.9993 -0.0347
vn -0.0104 0.9997 -0.0226
vn 0.0575 0.9983 -0.0138
vn 0.0151 0.9999 -0.0036
vn 0.0700 0.9974 0.0145
vn 0.9999 -0.0108 -0.0039
vn 0.0385 -0.7422 -0.6691
vn -0.9976 0.0644 -0.0254
s off
f 25//27 20//27 26//27
f 26//28 24//28 27//28
f 32//29 22//29 28//29
f 22//30 25//30 28//30
f 19//31 21//31 17//31
f 22//32 30//32 31//32
f 28//33 17//33 21//33
f 23//34 28//34 21//34
f 26//35 23//35 19//35
f 25//36 19//36 17//36
f 29//37 31//37 33//37
f 30//38 32//38 33//38
f 33//39 31//39 30//39
f 33//40 32//40 29//40
f 25//41 18//41 20//41
f 26//42 20//42 24//42
f 28//43 27//43 32//43
f 27//44 24//44 32//44
f 24//45 29//45 32//45
f 32//46 30//46 22//46
f 22//47 18//47 25//47
f 19//48 23//48 21//48
f 29//49 24//49 31//49
f 24//50 20//50 31//50
f 20//51 18//51 31//51
f 18//52 22//52 31//52
f 28//33 25//33 17//33
f 23//53 27//53 28//53
f 26//54 27//54 23//54
f 25//55 26//55 19//55
