# Blender v3.0.1 OBJ File: 'star.blend'
# www.blender.org
o Icosphere
v 0.211449 0.671244 -0.000194
v -0.062753 0.508789 -0.500189
v -0.062753 1.096567 -0.309205
v -0.062753 1.096567 0.308818
v -0.062753 0.508789 0.499801
v -0.206566 0.671244 -0.000194
v -0.062756 0.145514 -0.000194
v 0.062103 0.508788 0.499801
v 0.062100 0.145514 -0.000194
v 0.062103 1.096567 0.308818
v 0.062103 1.096567 -0.309205
v 0.062103 0.508788 -0.500189
v -0.000326 -0.080985 0.546337
v -0.000325 0.958341 0.883386
v -0.000325 1.596745 -0.000194
v -0.000325 0.957620 -0.881552
v -0.000326 -0.079506 -0.545651
vn 0.9435 -0.2680 -0.1947
vn 0.9435 0.1024 -0.3151
vn 0.9435 0.3313 0.0000
vn 0.9435 0.1024 0.3151
vn 0.9435 -0.2680 0.1947
vn 0.0000 0.9718 -0.2359
vn -0.0000 -0.6491 0.7607
vn 0.9924 -0.0997 -0.0724
vn 0.0000 0.5256 -0.8507
vn 0.0000 0.0787 0.9969
vn -0.9473 -0.2591 0.1883
vn -0.9473 0.0990 0.3046
vn -0.9473 0.3203 0.0000
vn -0.9473 0.0990 -0.3046
vn -0.9473 -0.2591 -0.1883
vn 0.9924 -0.0994 0.0722
vn -0.0000 -0.9238 -0.3829
vn -0.9924 -0.0994 0.0722
vn -0.9924 0.0380 0.1170
vn 0.0000 0.9723 0.2339
vn 0.9924 0.0380 0.1170
vn 0.9923 0.1238 0.0000
vn 0.0000 0.5256 0.8507
vn -0.9923 0.1239 0.0000
vn -0.9923 0.0382 -0.1175
vn -0.0000 -0.6475 -0.7621
vn 0.9923 0.0382 -0.1175
vn -0.0000 -0.9244 0.3814
vn 0.0000 0.0770 -0.9970
vn -0.9924 -0.0997 -0.0724
s off
f 9//1 12//1 1//1
f 12//2 11//2 1//2
f 11//3 10//3 1//3
f 10//4 8//4 1//4
f 8//5 9//5 1//5
f 11//6 16//6 3//6
f 8//7 14//7 5//7
f 9//8 17//8 12//8
f 3//9 15//9 11//9
f 5//10 13//10 8//10
f 5//11 6//11 7//11
f 4//12 6//12 5//12
f 3//13 6//13 4//13
f 2//14 6//14 3//14
f 7//15 6//15 2//15
f 8//16 13//16 9//16
f 9//17 13//17 7//17
f 7//18 13//18 5//18
f 5//19 14//19 4//19
f 4//20 14//20 10//20
f 10//21 14//21 8//21
f 11//22 15//22 10//22
f 10//23 15//23 4//23
f 4//24 15//24 3//24
f 3//25 16//25 2//25
f 2//26 16//26 12//26
f 12//27 16//27 11//27
f 7//28 17//28 9//28
f 12//29 17//29 2//29
f 2//30 17//30 7//30
o Cone
v 0.000000 -0.157453 -0.310691
v 0.060613 -0.157453 -0.304721
v 0.118896 -0.157453 -0.287041
v 0.172611 -0.157453 -0.258330
v 0.219692 -0.157453 -0.219692
v 0.258330 -0.157453 -0.172611
v 0.287041 -0.157453 -0.118896
v 0.304721 -0.157453 -0.060613
v 0.310691 -0.157453 0.000000
v 0.304721 -0.157453 0.060613
v 0.287041 -0.157453 0.118896
v 0.258330 -0.157453 0.172611
v 0.219692 -0.157453 0.219692
v 0.172611 -0.157453 0.258330
v 0.118896 -0.157453 0.287041
v 0.060613 -0.157453 0.304721
v -0.000000 -0.157453 0.310691
v -0.060613 -0.157453 0.304721
v -0.118896 -0.157453 0.287041
v -0.172611 -0.157453 0.258330
v -0.219692 -0.157453 0.219692
v -0.258330 -0.157453 0.172611
v -0.287041 -0.157453 0.118896
v -0.304721 -0.157453 0.060613
v -0.310691 -0.157453 -0.000000
v -0.304721 -0.157453 -0.060613
v -0.287041 -0.157453 -0.118896
v -0.258330 -0.157453 -0.172611
v -0.219692 -0.157453 -0.219692
v -0.172611 -0.157453 -0.258330
v -0.118896 -0.157453 -0.287041
v -0.060613 -0.157453 -0.304721
v 0.000000 0.463930 0.000000
vn 0.0878 0.4455 -0.8910
vn 0.2599 0.4455 -0.8567
vn 0.4220 0.4455 -0.7896
vn 0.5680 0.4455 -0.6921
vn 0.6921 0.4455 -0.5680
vn 0.7896 0.4455 -0.4220
vn 0.8567 0.4455 -0.2599
vn 0.8910 0.4455 -0.0878
vn 0.8910 0.4455 0.0878
vn 0.8567 0.4455 0.2599
vn 0.7896 0.4455 0.4220
vn 0.6921 0.4455 0.5680
vn 0.5680 0.4455 0.6921
vn 0.4220 0.4455 0.7896
vn 0.2599 0.4455 0.8567
vn 0.0878 0.4455 0.8910
vn -0.0878 0.4455 0.8910
vn -0.2599 0.4455 0.8567
vn -0.4220 0.4455 0.7896
vn -0.5680 0.4455 0.6921
vn -0.6921 0.4455 0.5680
vn -0.7896 0.4455 0.4220
vn -0.8567 0.4455 0.2599
vn -0.8910 0.4455 0.0878
vn -0.8910 0.4455 -0.0878
vn -0.8567 0.4455 -0.2599
vn -0.7896 0.4455 -0.4220
vn -0.6921 0.4455 -0.5680
vn -0.5680 0.4455 -0.6921
vn -0.4220 0.4455 -0.7896
vn 0.0000 -1.0000 0.0000
vn -0.2599 0.4455 -0.8567
vn -0.0878 0.4455 -0.8910
s off
f 18//31 50//31 19//31
f 19//32 50//32 20//32
f 20//33 50//33 21//33
f 21//34 50//34 22//34
f 22//35 50//35 23//35
f 23//36 50//36 24//36
f 24//37 50//37 25//37
f 25//38 50//38 26//38
f 26//39 50//39 27//39
f 27//40 50//40 28//40
f 28//41 50//41 29//41
f 29//42 50//42 30//42
f 30//43 50//43 31//43
f 31//44 50//44 32//44
f 32//45 50//45 33//45
f 33//46 50//46 34//46
f 34//47 50//47 35//47
f 35//48 50//48 36//48
f 36//49 50//49 37//49
f 37//50 50//50 38//50
f 38//51 50//51 39//51
f 39//52 50//52 40//52
f 40//53 50//53 41//53
f 41//54 50//54 42//54
f 42//55 50//55 43//55
f 43//56 50//56 44//56
f 44//57 50//57 45//57
f 45//58 50//58 46//58
f 46//59 50//59 47//59
f 47//60 50//60 48//60
f 25//61 33//61 41//61
f 48//62 50//62 49//62
f 49//63 50//63 18//63
f 49//61 18//61 19//61
f 19//61 20//61 21//61
f 21//61 22//61 23//61
f 23//61 24//61 25//61
f 25//61 26//61 27//61
f 27//61 28//61 29//61
f 29//61 30//61 31//61
f 31//61 32//61 33//61
f 33//61 34//61 35//61
f 35//61 36//61 37//61
f 37//61 38//61 39//61
f 39//61 40//61 41//61
f 41//61 42//61 43//61
f 43//61 44//61 41//61
f 44//61 45//61 41//61
f 45//61 46//61 47//61
f 47//61 48//61 45//61
f 48//61 49//61 45//61
f 49//61 19//61 25//61
f 19//61 21//61 25//61
f 21//61 23//61 25//61
f 25//61 27//61 29//61
f 29//61 31//61 25//61
f 31//61 33//61 25//61
f 33//61 35//61 41//61
f 35//61 37//61 41//61
f 37//61 39//61 41//61
f 41//61 45//61 49//61
f 49//61 25//61 41//61
