# Blender v3.0.1 OBJ File: 'table.blend'
# www.blender.org
o Cube
v -1.000000 1.749179 2.027569
v -1.000000 1.577000 2.027569
v -1.000000 1.749179 -2.027569
v -1.000000 1.577000 -2.027569
v 1.000000 1.749179 2.027569
v 1.000000 1.577000 2.027569
v 1.000000 1.749179 -2.027569
v 1.000000 1.577000 -2.027569
v 1.000000 1.577000 1.660951
v -1.000000 1.749179 1.660951
v 1.000000 1.749179 1.660951
v -1.000000 1.577000 1.660951
v 1.000000 1.577000 -1.691515
v -1.000000 1.749179 -1.691515
v 1.000000 1.749179 -1.691515
v -1.000000 1.577000 -1.691515
v 0.688036 1.577000 2.027569
v 0.688036 1.749179 -2.027569
v 0.688036 1.577000 -2.027569
v 0.688036 1.749179 2.027569
v 0.688036 1.577000 1.660951
v 0.688036 1.577000 -1.691515
v -0.620484 1.577000 -2.027569
v -0.620484 1.749179 2.027569
v -0.620484 1.577000 2.027569
v -0.620484 1.749179 -2.027569
v -0.620484 1.577000 1.660951
v -0.620484 1.577000 -1.691515
v 0.688036 -0.688550 2.027569
v 1.000000 -0.688550 2.027569
v 1.000000 -0.688550 1.660951
v 0.688036 -0.688550 1.660951
v 1.000000 -0.588783 -1.691515
v 1.000000 -0.588783 -2.027569
v 0.688036 -0.588783 -1.691515
v 0.688036 -0.588783 -2.027569
v -0.620484 -0.573973 -2.027569
v -1.000000 -0.573973 -2.027569
v -1.000000 -0.573973 -1.691515
v -0.620484 -0.573973 -1.691515
v -1.000000 -0.634590 1.660951
v -1.000000 -0.634590 2.027569
v -0.620484 -0.634590 2.027569
v -0.620484 -0.634590 1.660951
vn 0.0000 0.0000 -1.0000
vn 1.0000 0.0000 0.0000
vn -1.0000 0.0000 0.0000
vn 0.0000 0.0000 1.0000
vn 0.0000 -1.0000 0.0000
vn 0.0000 1.0000 0.0000
s off
f 18//1 8//1 19//1
f 11//2 6//2 9//2
f 28//2 37//2 23//2
f 14//3 4//3 16//3
f 24//4 2//4 25//4
f 1//3 12//3 2//3
f 27//1 41//1 12//1
f 15//2 9//2 13//2
f 7//2 13//2 8//2
f 10//3 16//3 12//3
f 12//5 28//5 27//5
f 21//5 13//5 9//5
f 9//1 32//1 21//1
f 5//4 17//4 6//4
f 22//4 33//4 13//4
f 26//1 19//1 23//1
f 3//1 23//1 4//1
f 27//5 22//5 21//5
f 25//5 21//5 17//5
f 20//4 25//4 17//4
f 28//5 19//5 22//5
f 29//5 31//5 30//5
f 21//3 29//3 17//3
f 17//4 30//4 6//4
f 6//2 31//2 9//2
f 35//5 34//5 33//5
f 13//2 34//2 8//2
f 8//1 36//1 19//1
f 19//3 35//3 22//3
f 39//5 37//5 40//5
f 16//4 40//4 28//4
f 4//3 39//3 16//3
f 23//1 38//1 4//1
f 42//5 44//5 43//5
f 2//4 43//4 25//4
f 25//2 44//2 27//2
f 12//3 42//3 2//3
f 10//6 24//6 26//6
f 18//1 7//1 8//1
f 11//2 5//2 6//2
f 28//2 40//2 37//2
f 14//3 3//3 4//3
f 24//4 1//4 2//4
f 1//3 10//3 12//3
f 27//1 44//1 41//1
f 15//2 11//2 9//2
f 7//2 15//2 13//2
f 10//3 14//3 16//3
f 12//5 16//5 28//5
f 21//5 22//5 13//5
f 9//1 31//1 32//1
f 5//4 20//4 17//4
f 22//4 35//4 33//4
f 26//1 18//1 19//1
f 3//1 26//1 23//1
f 27//5 28//5 22//5
f 25//5 27//5 21//5
f 20//4 24//4 25//4
f 28//5 23//5 19//5
f 29//5 32//5 31//5
f 21//3 32//3 29//3
f 17//4 29//4 30//4
f 6//2 30//2 31//2
f 35//5 36//5 34//5
f 13//2 33//2 34//2
f 8//1 34//1 36//1
f 19//3 36//3 35//3
f 39//5 38//5 37//5
f 16//4 39//4 40//4
f 4//3 38//3 39//3
f 23//1 37//1 38//1
f 42//5 41//5 44//5
f 2//4 42//4 43//4
f 25//2 43//2 44//2
f 12//3 41//3 42//3
f 11//6 15//6 18//6
f 15//6 7//6 18//6
f 18//6 26//6 20//6
f 26//6 3//6 14//6
f 18//6 20//6 11//6
f 20//6 5//6 11//6
f 10//6 1//6 24//6
f 24//6 20//6 26//6
f 14//6 10//6 26//6
